<svg width="320" height="240" viewBox="0 0 320 240" fill="none" xmlns="http://www.w3.org/2000/svg">
  <rect width="320" height="240" rx="24" fill="#F5F7FA"/>
  <ellipse cx="160" cy="198" rx="98" ry="11" fill="#E6EBF2"/>

  <rect x="88" y="90" width="144" height="94" rx="16" fill="#FFFFFF" stroke="#D7DEE8" stroke-width="4"/>
  <path d="M88 120H232" stroke="#D7DEE8" stroke-width="4"/>
  <rect x="108" y="106" width="82" height="8" rx="4" fill="#EEF2F7"/>
  <rect x="108" y="134" width="76" height="9" rx="4.5" fill="#F4F6FA"/>
  <rect x="108" y="149" width="54" height="9" rx="4.5" fill="#F4F6FA"/>

  <path d="M232 124L260 108V170C260 178.837 252.837 186 244 186H232V124Z" fill="#FF8A65"/>
  <rect x="236" y="132" width="16" height="16" rx="2" fill="#FFF2ED"/>

  <circle cx="116" cy="186" r="12" fill="#2C3E50"/>
  <circle cx="218" cy="186" r="12" fill="#2C3E50"/>
  <circle cx="116" cy="186" r="5" fill="#BFC9D8"/>
  <circle cx="218" cy="186" r="5" fill="#BFC9D8"/>

  <rect x="64" y="66" width="54" height="34" rx="10" fill="#FF8A65"/>
  <path d="M78 83H104" stroke="white" stroke-width="3.5" stroke-linecap="round"/>

  <rect x="202" y="58" width="54" height="34" rx="10" fill="#4CAF50"/>
  <path d="M216 75L222 81L240 64" stroke="white" stroke-width="3.5" stroke-linecap="round" stroke-linejoin="round"/>
</svg>
