<svg width="320" height="240" viewBox="0 0 320 240" fill="none" xmlns="http://www.w3.org/2000/svg">
  <rect width="320" height="240" rx="24" fill="#F5F7FA"/>
  <ellipse cx="160" cy="198" rx="96" ry="12" fill="#E6EBF2"/>

  <rect x="86" y="88" width="148" height="96" rx="16" fill="#FFFFFF" stroke="#D7DEE8" stroke-width="4"/>
  <rect x="106" y="110" width="86" height="10" rx="5" fill="#EEF2F7"/>
  <rect x="106" y="128" width="72" height="9" rx="4.5" fill="#F4F6FA"/>
  <rect x="106" y="144" width="92" height="9" rx="4.5" fill="#F4F6FA"/>

  <path d="M234 122L262 106V172C262 178.627 256.627 184 250 184H234V122Z" fill="#FF8A65"/>
  <rect x="236" y="132" width="18" height="18" rx="2" fill="#FFF2ED"/>

  <circle cx="112" cy="184" r="12" fill="#2C3E50"/>
  <circle cx="222" cy="184" r="12" fill="#2C3E50"/>
  <circle cx="112" cy="184" r="5" fill="#BFC9D8"/>
  <circle cx="222" cy="184" r="5" fill="#BFC9D8"/>

  <rect x="74" y="62" width="66" height="40" rx="12" fill="#FFFFFF" stroke="#BFC9D8" stroke-width="4"/>
  <path d="M90 80H124" stroke="#D7DEE8" stroke-width="4" stroke-linecap="round"/>
  <path d="M90 90H114" stroke="#E6EBF2" stroke-width="4" stroke-linecap="round"/>

  <circle cx="246" cy="72" r="16" fill="#4CAF50"/>
  <path d="M238 72L244 78L255 67" stroke="white" stroke-width="4" stroke-linecap="round" stroke-linejoin="round"/>
</svg>
